<svg width="496" height="72" viewBox="0 0 496 72" fill="none" xmlns="http://www.w3.org/2000/svg">
<path d="M61.9795 6.9V62.1H6.88662V6.9H61.9795V6.9ZM68.8662 0H0V69H68.8662V0Z" fill="#00BCF2"/>
<path d="M101.594 55.6562C100.177 56.3646 98.3125 56.7188 96 56.7188C89.7917 56.7188 86.6875 53.7396 86.6875 47.7812V29.6875H81.3438V24H86.6875V16.5938L93.9375 14.5312V24H101.594V29.6875H93.9375V45.6875C93.9375 47.5833 94.2812 48.9375 94.9688 49.75C95.6562 50.5625 96.8021 50.9688 98.4062 50.9688C99.6354 50.9688 100.698 50.6146 101.594 49.9062V55.6562Z" fill="#606060"/>
<path d="M125.766 30.9062C124.891 30.2188 123.631 29.875 121.985 29.875C119.839 29.875 118.048 30.8438 116.61 32.7812C115.173 34.7188 114.454 37.3542 114.454 40.6875V56H107.204V24H114.454V30.5938H114.579C115.287 28.3438 116.37 26.5938 117.829 25.3438C119.308 24.0729 120.954 23.4375 122.766 23.4375C124.079 23.4375 125.079 23.6354 125.766 24.0312V30.9062Z" fill="#606060"/>
<path d="M156.783 41.9688H134.97C135.053 44.9271 135.96 47.2083 137.689 48.8125C139.439 50.4167 141.835 51.2188 144.876 51.2188C148.293 51.2188 151.428 50.1979 154.283 48.1562V54C151.366 55.8333 147.512 56.75 142.72 56.75C138.012 56.75 134.314 55.3021 131.626 52.4062C128.96 49.4896 127.626 45.3958 127.626 40.125C127.626 35.1458 129.095 31.0938 132.033 27.9688C134.991 24.8229 138.658 23.25 143.033 23.25C147.408 23.25 150.793 24.6562 153.189 27.4688C155.585 30.2812 156.783 34.1875 156.783 39.1875V41.9688ZM149.783 36.8438C149.762 34.2396 149.147 32.2188 147.939 30.7812C146.73 29.3229 145.064 28.5938 142.939 28.5938C140.855 28.5938 139.085 29.3542 137.626 30.875C136.189 32.3958 135.303 34.3854 134.97 36.8438H149.783Z" fill="#606060"/>
<path d="M191.549 56H184.299V37.9688C184.299 31.9896 182.184 29 177.955 29C175.747 29 173.924 29.8333 172.486 31.5C171.049 33.1458 170.33 35.2292 170.33 37.75V56H163.049V24H170.33V29.3125H170.455C172.851 25.2708 176.309 23.25 180.83 23.25C184.309 23.25 186.965 24.3854 188.799 26.6562C190.632 28.9062 191.549 32.1667 191.549 36.4375V56Z" fill="#606060"/>
<path d="M216.659 55.6562C215.242 56.3646 213.378 56.7188 211.065 56.7188C204.857 56.7188 201.753 53.7396 201.753 47.7812V29.6875H196.409V24H201.753V16.5938L209.003 14.5312V24H216.659V29.6875H209.003V45.6875C209.003 47.5833 209.346 48.9375 210.034 49.75C210.721 50.5625 211.867 50.9688 213.471 50.9688C214.7 50.9688 215.763 50.6146 216.659 49.9062V55.6562Z" fill="#606060"/>
<path d="M225.925 17.2812C224.738 17.2812 223.717 16.8958 222.863 16.125C222.029 15.3542 221.613 14.375 221.613 13.1875C221.613 12 222.029 11.0104 222.863 10.2188C223.717 9.42708 224.738 9.03125 225.925 9.03125C227.154 9.03125 228.196 9.42708 229.05 10.2188C229.904 11.0104 230.331 12 230.331 13.1875C230.331 14.3125 229.904 15.2812 229.05 16.0938C228.196 16.8854 227.154 17.2812 225.925 17.2812ZM229.519 56H222.269V24H229.519V56Z" fill="#606060"/>
<path d="M286.223 56H278.973V38.5625C278.973 35.2083 278.493 32.7812 277.535 31.2812C276.598 29.7812 275.004 29.0312 272.754 29.0312C270.858 29.0312 269.243 29.9792 267.91 31.875C266.598 33.7708 265.941 36.0417 265.941 38.6875V56H258.66V37.9688C258.66 32.0104 256.556 29.0312 252.348 29.0312C250.389 29.0312 248.775 29.9271 247.504 31.7188C246.254 33.5104 245.629 35.8333 245.629 38.6875V56H238.379V24H245.629V29.0625H245.754C248.066 25.1875 251.431 23.25 255.848 23.25C258.056 23.25 259.983 23.8646 261.629 25.0938C263.295 26.3021 264.431 27.8958 265.035 29.875C267.41 25.4583 270.952 23.25 275.66 23.25C282.702 23.25 286.223 27.5938 286.223 36.2812V56Z" fill="#606060"/>
<path d="M294.833 46.6562H304.176V56H294.833V46.6562Z" fill="#606060"/>
<path d="M343.812 56H336.562V50.5625H336.438C334.104 54.6875 330.51 56.75 325.656 56.75C321.719 56.75 318.562 55.3229 316.188 52.4688C313.833 49.5938 312.656 45.6875 312.656 40.75C312.656 35.4583 313.958 31.2188 316.562 28.0312C319.188 24.8438 322.677 23.25 327.031 23.25C331.344 23.25 334.479 24.9792 336.438 28.4375H336.562V8.625H343.812V56ZM336.656 41.375V37.1875C336.656 34.9167 335.917 32.9896 334.438 31.4062C332.958 29.8229 331.073 29.0312 328.781 29.0312C326.073 29.0312 323.938 30.0417 322.375 32.0625C320.833 34.0833 320.062 36.8854 320.062 40.4688C320.062 43.7188 320.802 46.2917 322.281 48.1875C323.781 50.0625 325.792 51 328.312 51C330.792 51 332.802 50.0938 334.344 48.2812C335.885 46.4479 336.656 44.1458 336.656 41.375Z" fill="#00BCF2"/>
<path d="M379.735 41.9688H357.923C358.006 44.9271 358.912 47.2083 360.641 48.8125C362.391 50.4167 364.787 51.2188 367.829 51.2188C371.245 51.2188 374.381 50.1979 377.235 48.1562V54C374.318 55.8333 370.464 56.75 365.673 56.75C360.964 56.75 357.266 55.3021 354.579 52.4062C351.912 49.4896 350.579 45.3958 350.579 40.125C350.579 35.1458 352.048 31.0938 354.985 27.9688C357.943 24.8229 361.61 23.25 365.985 23.25C370.36 23.25 373.745 24.6562 376.141 27.4688C378.537 30.2812 379.735 34.1875 379.735 39.1875V41.9688ZM372.735 36.8438C372.714 34.2396 372.1 32.2188 370.891 30.7812C369.683 29.3229 368.016 28.5938 365.891 28.5938C363.808 28.5938 362.037 29.3542 360.579 30.875C359.141 32.3958 358.256 34.3854 357.923 36.8438H372.735Z" fill="#00BCF2"/>
<path d="M384.001 55V48.2812C386.71 50.3438 389.699 51.375 392.97 51.375C397.345 51.375 399.533 50.0833 399.533 47.5C399.533 46.7708 399.345 46.1562 398.97 45.6562C398.595 45.1354 398.085 44.6771 397.439 44.2812C396.814 43.8854 396.064 43.5312 395.189 43.2188C394.335 42.9062 393.376 42.5521 392.314 42.1562C391.001 41.6354 389.814 41.0833 388.751 40.5C387.71 39.9167 386.835 39.2604 386.126 38.5312C385.439 37.7812 384.918 36.9375 384.564 36C384.21 35.0625 384.033 33.9688 384.033 32.7188C384.033 31.1771 384.397 29.8229 385.126 28.6562C385.855 27.4688 386.835 26.4792 388.064 25.6875C389.293 24.875 390.689 24.2708 392.251 23.875C393.814 23.4583 395.428 23.25 397.095 23.25C400.053 23.25 402.699 23.6979 405.033 24.5938V30.9375C402.783 29.3958 400.199 28.625 397.283 28.625C396.366 28.625 395.533 28.7188 394.783 28.9062C394.053 29.0938 393.428 29.3542 392.908 29.6875C392.387 30.0208 391.98 30.4271 391.689 30.9062C391.397 31.3646 391.251 31.875 391.251 32.4375C391.251 33.125 391.397 33.7083 391.689 34.1875C391.98 34.6667 392.408 35.0938 392.97 35.4688C393.553 35.8229 394.241 36.1562 395.033 36.4688C395.845 36.7604 396.772 37.0833 397.814 37.4375C399.189 38 400.418 38.5729 401.501 39.1562C402.605 39.7396 403.543 40.4062 404.314 41.1562C405.085 41.8854 405.678 42.7396 406.095 43.7188C406.512 44.6771 406.72 45.8229 406.72 47.1562C406.72 48.7812 406.345 50.1979 405.595 51.4062C404.845 52.6146 403.845 53.6146 402.595 54.4062C401.345 55.1979 399.897 55.7812 398.251 56.1562C396.626 56.5521 394.908 56.75 393.095 56.75C389.595 56.75 386.564 56.1667 384.001 55Z" fill="#00BCF2"/>
<path d="M416.643 17.2812C415.455 17.2812 414.434 16.8958 413.58 16.125C412.747 15.3542 412.33 14.375 412.33 13.1875C412.33 12 412.747 11.0104 413.58 10.2188C414.434 9.42708 415.455 9.03125 416.643 9.03125C417.872 9.03125 418.913 9.42708 419.768 10.2188C420.622 11.0104 421.049 12 421.049 13.1875C421.049 14.3125 420.622 15.2812 419.768 16.0938C418.913 16.8854 417.872 17.2812 416.643 17.2812ZM420.236 56H412.986V24H420.236V56Z" fill="#00BCF2"/>
<path d="M458.221 53.4375C458.221 65.1875 452.315 71.0625 440.503 71.0625C436.336 71.0625 432.7 70.3646 429.596 68.9688V62.3438C433.096 64.3438 436.419 65.3438 439.565 65.3438C447.169 65.3438 450.971 61.6042 450.971 54.125V50.625H450.846C448.45 54.7083 444.846 56.75 440.034 56.75C436.138 56.75 432.992 55.3333 430.596 52.5C428.221 49.6458 427.034 45.8229 427.034 41.0312C427.034 35.5938 428.315 31.2708 430.878 28.0625C433.44 24.8542 436.961 23.25 441.44 23.25C445.669 23.25 448.805 24.9792 450.846 28.4375H450.971V24H458.221V53.4375ZM451.034 41.3438V37.1875C451.034 34.9375 450.284 33.0208 448.784 31.4375C447.305 29.8333 445.45 29.0312 443.221 29.0312C440.471 29.0312 438.315 30.0521 436.753 32.0938C435.211 34.1146 434.44 36.9479 434.44 40.5938C434.44 43.7396 435.18 46.2604 436.659 48.1562C438.159 50.0312 440.138 50.9688 442.596 50.9688C445.096 50.9688 447.128 50.0729 448.69 48.2812C450.253 46.4688 451.034 44.1562 451.034 41.3438Z" fill="#00BCF2"/>
<path d="M495.519 56H488.269V37.9688C488.269 31.9896 486.154 29 481.925 29C479.717 29 477.894 29.8333 476.456 31.5C475.019 33.1458 474.3 35.2292 474.3 37.75V56H467.019V24H474.3V29.3125H474.425C476.821 25.2708 480.279 23.25 484.8 23.25C488.279 23.25 490.935 24.3854 492.769 26.6562C494.602 28.9062 495.519 32.1667 495.519 36.4375V56Z" fill="#00BCF2"/>
</svg>
